<svg width="31" height="32" viewBox="0 0 31 32" fill="none" xmlns="http://www.w3.org/2000/svg">
<g id="earth-line 1" clip-path="url(#clip0_20_118)">
<path id="Vector" d="M8.06046 8.3655C6.41491 10.0734 5.40749 12.2958 5.20753 14.659C5.00757 17.0222 5.62725 19.3823 6.96243 21.3424C8.29761 23.3025 10.2669 24.7433 12.5392 25.4225C14.8116 26.1016 17.2484 25.9778 19.4403 25.0719C19.5887 24.1039 19.2634 23.1746 19.1305 22.8494C18.8337 22.1266 17.8553 20.8914 16.2226 19.1787C15.7864 18.7205 15.8148 18.3682 15.971 17.324L15.9877 17.2066C16.0936 16.4915 16.2717 16.0682 18.6788 15.6862C19.9023 15.4926 20.2237 15.9804 20.669 16.658L20.8187 16.88C21.242 17.4996 21.5557 17.6415 22.0293 17.8558C22.2423 17.9526 22.5069 18.0752 22.8618 18.2752C23.7033 18.7567 23.7033 19.3 23.7033 20.49V20.6255C23.7033 21.1302 23.6543 21.5742 23.5769 21.9601C24.5673 20.7171 25.2574 19.2623 25.5936 17.7089C25.9298 16.1555 25.903 14.5455 25.5152 13.0042C25.1274 11.4629 24.3891 10.0319 23.3578 8.82258C22.3265 7.61327 21.0301 6.65828 19.5693 6.03198C18.8556 6.5134 17.876 7.19616 17.5339 7.66467C17.3597 7.90344 17.1119 9.12571 16.3078 9.22638C16.0987 9.25219 15.8161 9.23412 15.5166 9.21476C14.7138 9.16314 13.6168 9.09215 13.2657 10.046C13.0424 10.65 13.0037 12.2917 13.7252 13.1436C13.8414 13.2791 13.8633 13.5308 13.7846 13.8134C13.6813 14.1838 13.4735 14.4097 13.4077 14.4562C13.2838 14.3839 13.036 14.0961 12.8669 13.9012C12.4629 13.4301 11.957 12.8428 11.3039 12.6621C11.0664 12.5963 10.8057 12.5421 10.5514 12.4879C9.84287 12.3395 9.04136 12.1704 8.85422 11.7729C8.71741 11.4812 8.7187 11.0798 8.7187 10.6564C8.7187 10.1182 8.7187 9.51032 8.4554 8.92049C8.36387 8.70999 8.22934 8.52095 8.06046 8.3655ZM15.5011 28.4315C8.3728 28.4315 2.59448 22.6532 2.59448 15.5248C2.59448 8.39648 8.3728 2.61816 15.5011 2.61816C22.6295 2.61816 28.4078 8.39648 28.4078 15.5248C28.4078 22.6532 22.6295 28.4315 15.5011 28.4315Z" fill="url(#paint0_linear_20_118)"/>
</g>
<defs>
<linearGradient id="paint0_linear_20_118" x1="-0.273661" y1="2.99227" x2="21.6842" y2="18.5659" gradientUnits="userSpaceOnUse">
<stop stop-color="#9CC1B4"/>
<stop offset="0.521316" stop-color="#91F5BC"/>
<stop offset="1" stop-color="#5EC0EA"/>
</linearGradient>
<clipPath id="clip0_20_118">
<rect width="30.976" height="30.976" fill="white" transform="translate(0.0134277 0.0371094)"/>
</clipPath>
</defs>
</svg>
