<svg width="32" height="32" viewBox="0 0 32 32" fill="none" xmlns="http://www.w3.org/2000/svg">
<g id="home">
<path id="Union" fill-rule="evenodd" clip-rule="evenodd" d="M29.12 13.9251V22.7488C29.12 25.1248 27.1939 27.051 24.8178 27.051H23.2403C22.5275 27.051 21.9497 26.4731 21.9497 25.7603V25.4735C21.9497 24.7607 22.5275 24.1828 23.2403 24.1828H24.8178C25.6098 24.1828 26.2519 23.5408 26.2519 22.7488V13.9251C26.2519 13.4784 26.0438 13.0572 25.6889 12.7859L17.0845 6.20602C16.5703 5.81282 15.8564 5.81281 15.3422 6.20602L6.7378 12.7859C6.38298 13.0572 6.17485 13.4784 6.17485 13.9251V22.7488C6.17485 23.5408 6.81691 24.1828 7.60892 24.1828H9.18641C9.89922 24.1828 10.4771 24.7607 10.4771 25.4735V25.7603C10.4771 26.4731 9.89922 27.051 9.18641 27.051H7.60892C5.23287 27.051 3.3067 25.1248 3.3067 22.7488V13.9251C3.3067 12.585 3.93109 11.3215 4.99554 10.5076L13.6 3.92769C15.1426 2.74806 17.2842 2.74807 18.8268 3.92769L27.4312 10.5076C28.4956 11.3215 29.12 12.585 29.12 13.9251ZM16.0699 14.4309H16.3567C18.4951 14.4309 20.2287 16.1645 20.2287 18.3029V22.892C20.2287 25.0304 18.4951 26.764 16.3567 26.764H16.0699C13.9314 26.764 12.1979 25.0304 12.1979 22.892V18.3029C12.1979 16.1645 13.9314 14.4309 16.0699 14.4309ZM17.6474 18.3029C17.6474 17.5901 17.0695 17.0123 16.3567 17.0123H16.0699C15.3571 17.0123 14.7792 17.5901 14.7792 18.3029V22.892C14.7792 23.6048 15.3571 24.1826 16.0699 24.1826H16.3567C17.0695 24.1826 17.6474 23.6048 17.6474 22.892V18.3029Z" fill="#DEE8F0"/>
</g>
</svg>
